<?xml version="1.0" encoding="UTF-8"?>
<svg version="1.1" xmlns="http://www.w3.org/2000/svg" width="753" height="771">
<path d="M0 0 C2.77533132 1.99697314 5.57307905 3.96126636 8.37109375 5.92626953 C14.93225526 10.53432706 21.44522813 15.20374142 27.93115234 19.91699219 C34.07116872 24.37550478 40.27855671 28.7170381 46.55615234 32.97949219 C53.59963137 37.76197703 60.53799855 42.66786269 67.42504883 47.67260742 C74.55055854 52.84990022 81.74268316 57.92917871 88.94726562 62.99560547 C92.48656408 65.4859801 96.02108242 67.98312082 99.55615234 70.47949219 C100.9545764 71.4664904 102.35301394 72.45346951 103.75146484 73.44042969 C106.76785134 75.56956188 109.78332313 77.69998326 112.79833984 79.83105469 C113.57371094 80.37890625 114.34908203 80.92675781 115.14794922 81.49121094 C116.63645833 82.54297187 118.12475019 83.59504035 119.61279297 84.64746094 C120.61729492 85.35708984 120.61729492 85.35708984 121.64208984 86.08105469 C122.23038574 86.49693848 122.81868164 86.91282227 123.42480469 87.34130859 C124.95416894 88.40833885 126.50453836 89.44508287 128.05615234 90.47949219 C128.06001953 89.63644531 128.06001953 89.63644531 128.06396484 88.77636719 C129.51649814 57.20797699 149.90208326 26.80579333 172.38330078 5.96142578 C199.56248742 -18.1158747 235.51572249 -30.18694775 271.63476562 -28.67724609 C302.66372583 -26.66871691 331.46855839 -15.97380478 355.05615234 4.47949219 C355.88501953 5.1871875 356.71388672 5.89488281 357.56787109 6.62402344 C384.3532923 30.04588486 401.4114697 64.03741233 403.93115234 99.62792969 C405.68993106 139.75006905 392.46317594 176.22681621 365.36865234 205.85449219 C363.6089662 207.74047449 361.83395415 209.61045016 360.05615234 211.47949219 C359.16863281 212.44628906 359.16863281 212.44628906 358.26318359 213.43261719 C331.53627901 241.67734598 290.87948415 256.14013327 252.80615234 257.60449219 C216.10759888 258.28409503 184.551583 245.05344448 154.68115234 224.72949219 C153.23116201 223.75185634 151.78071706 222.77489445 150.32983398 221.79858398 C146.23101333 219.03667105 142.14250573 216.2598035 138.05615234 213.47949219 C137.03473145 212.7861377 136.01331055 212.0927832 134.9609375 211.37841797 C130.31083689 208.21971614 125.67252451 205.04453964 121.04589844 201.8515625 C119.08955908 200.50252849 117.13007631 199.15819991 115.16943359 197.81542969 C106.26505742 191.71372027 97.40311321 185.55178759 88.54541016 179.38256836 C82.44050003 175.13241015 76.32184519 170.90348846 70.1862793 166.69775391 C64.35282886 162.69424584 58.54836782 158.64951045 52.74365234 154.60449219 C44.93747017 149.16567506 37.10730099 143.7647664 29.24682617 138.40478516 C23.11480571 134.21778193 17.02034369 129.97847249 10.93115234 125.72949219 C-0.1840387 117.97983476 -11.37863199 110.35096406 -22.59619141 102.75048828 C-25.53203976 100.76012129 -28.46416196 98.76432577 -31.39530945 96.76704407 C-33.87195445 95.079579 -36.34958535 93.3935646 -38.82730103 91.70767212 C-40.00248345 90.90761771 -41.17728719 90.10700668 -42.35165405 89.30575562 C-59.16830065 77.57663947 -59.16830065 77.57663947 -77.13134766 67.79199219 C-77.92250977 67.42315918 -78.71367187 67.05432617 -79.52880859 66.67431641 C-110.85723599 52.48190802 -150.01318506 47.29035081 -182.85009766 59.19824219 C-207.18325759 69.27561145 -223.78645397 85.46522788 -234.25634766 109.66699219 C-245.09461428 137.72634686 -243.75849566 170.09994212 -231.80761719 197.56933594 C-227.08444489 208.01424832 -221.63629841 216.89440209 -213.94384766 225.47949219 C-213.18845703 226.34316406 -212.43306641 227.20683594 -211.65478516 228.09667969 C-202.69715571 238.22403394 -193.17095382 246.98541076 -182.40869141 255.17871094 C-169.53109907 265.01319838 -157.90935667 276.5059372 -155.15869141 293.28808594 C-153.97215893 305.3907172 -155.99566406 316.5589026 -163.32275391 326.55371094 C-170.29735654 334.83920274 -180.12641692 340.31478357 -190.94384766 341.47949219 C-222.23744003 343.73457368 -249.35118759 327.58137369 -272.68603516 308.20214844 C-275.16696723 306.01811479 -277.56332539 303.77265584 -279.94384766 301.47949219 C-280.47719727 300.97192383 -281.01054687 300.46435547 -281.56005859 299.94140625 C-319.06132269 264.11337201 -339.87797448 212.92758572 -341.14697266 161.24511719 C-341.84664887 103.20741779 -322.39057218 52.00713018 -282.0324707 10.34863281 C-266.2867837 -5.66759864 -247.77582177 -18.0984569 -227.94384766 -28.52050781 C-227.29254883 -28.8632373 -226.64125 -29.2059668 -225.97021484 -29.55908203 C-148.16956348 -69.80810647 -67.56243776 -48.84070435 0 0 Z " fill="#134DF6" transform="translate(348.94384765625,51.5205078125)"/>
<path d="M0 0 C38.65087089 36.56122636 58.55646345 89.17911458 60.30859375 141.75390625 C61.30367184 189.54253129 46.62360418 236.94807093 16.125 274 C15.67576172 274.55606934 15.22652344 275.11213867 14.76367188 275.68505859 C-19.03845522 317.39707147 -68.34494246 342.51586928 -120.875 351 C-122.11378906 351.20109375 -123.35257813 351.4021875 -124.62890625 351.609375 C-142.88886227 353.7135178 -162.95545772 352.97695923 -180.875 349 C-181.77976074 348.80132324 -182.68452148 348.60264648 -183.61669922 348.39794922 C-203.50290787 343.89598406 -221.92268678 336.59488814 -239.875 327 C-240.51856445 326.65888184 -241.16212891 326.31776367 -241.82519531 325.96630859 C-258.33826143 317.15140234 -273.54750596 306.33943595 -288.77050781 295.49560547 C-290.87135201 294.00259253 -292.97754274 292.51748386 -295.0859375 291.03515625 C-302.34629502 285.92981057 -309.56991123 280.78019262 -316.75 275.5625 C-322.89001637 271.10398741 -329.09740436 266.76245409 -335.375 262.5 C-342.41847903 257.71751516 -349.3568462 252.8116295 -356.24389648 247.80688477 C-361.28236951 244.14600279 -366.34584688 240.52405483 -371.4375 236.9375 C-372.13069336 236.44918701 -372.82388672 235.96087402 -373.53808594 235.45776367 C-375.64992172 233.97117476 -377.76241528 232.48552436 -379.875 231 C-389.25711703 224.3988408 -398.62823979 217.79027747 -407.875 211 C-407.99504395 211.55236328 -408.11508789 212.10472656 -408.23876953 212.67382812 C-414.62486632 241.67860262 -425.24400007 265.20957197 -445.875 287 C-446.70644531 287.89589844 -447.53789062 288.79179688 -448.39453125 289.71484375 C-471.15430236 313.47431198 -504.65085575 328.47560244 -537.5859375 329.203125 C-574.95023166 329.59048386 -607.86869712 320.55438614 -636.875 296 C-638.12796875 294.95005859 -638.12796875 294.95005859 -639.40625 293.87890625 C-645.66248887 288.46262538 -650.83476116 282.54863149 -655.875 276 C-656.51953125 275.2059375 -657.1640625 274.411875 -657.828125 273.59375 C-679.26071914 246.06245021 -688.29346513 209.47519389 -684.37890625 175.0078125 C-680.54860642 146.66590291 -668.87137798 120.43260178 -649.875 99 C-649.19050781 98.21713623 -649.19050781 98.21713623 -648.4921875 97.41845703 C-641.8368668 89.83557325 -634.95556652 83.09336198 -626.875 77 C-625.864375 76.21238281 -624.85375 75.42476563 -623.8125 74.61328125 C-590.83263659 49.51667545 -548.83332327 39.38203768 -507.87084961 44.82080078 C-481.07422685 49.07765191 -457.23573526 61.5890814 -435.0625 76.6875 C-433.46055494 77.76833828 -431.85809234 78.84840989 -430.25512695 79.92773438 C-426.4383386 82.50106828 -422.62891346 85.08500358 -418.82324219 87.67474365 C-416.25975707 89.41850782 -413.69214484 91.156161 -411.125 92.89453125 C-401.83566123 99.20493777 -392.63150739 105.6392004 -383.41870117 112.06054688 C-377.42397288 116.23654831 -371.41084746 120.38368681 -365.375 124.5 C-357.28569818 130.01704009 -349.24432688 135.6011482 -341.2109375 141.19921875 C-335.7778191 144.98416969 -330.33660726 148.75628278 -324.875 152.5 C-318.41588951 156.92746649 -311.98735636 161.39799608 -305.5625 165.875 C-296.17034389 172.41672005 -286.7457298 178.90836555 -277.28808594 185.35498047 C-274.78755099 187.05961467 -272.28822703 188.76601361 -269.7890625 190.47265625 C-265.19681498 193.60765877 -260.60201738 196.73889775 -256.00585938 199.86816406 C-253.78547452 201.38004807 -251.56541776 202.89240623 -249.34570312 204.40527344 C-246.23989051 206.52182684 -243.13276012 208.63643475 -240.02487183 210.74993896 C-238.82064813 211.5692359 -237.61679726 212.38908115 -236.4133606 213.20953369 C-208.95487102 231.92641895 -179.87055305 246.83109846 -145.875 248 C-144.72773437 248.0515625 -143.58046875 248.103125 -142.3984375 248.15625 C-116.38912225 248.78172451 -89.60875008 242.79499569 -69.875 225 C-69.20210937 224.41992188 -68.52921875 223.83984375 -67.8359375 223.2421875 C-50.81481455 207.57732933 -40.84696787 182.2976678 -39.75390625 159.47119141 C-38.63484293 127.4380039 -47.00212967 97.12708936 -68.875 73 C-78.11616234 63.10692398 -87.73312272 53.86432529 -98.56640625 45.72998047 C-110.07963971 37.07951376 -118.68941607 28.8352219 -123.875 15 C-124.24431641 14.01966797 -124.24431641 14.01966797 -124.62109375 13.01953125 C-127.87396779 2.49816624 -126.56941088 -9.18562257 -121.875 -19 C-116.23796442 -29.00076431 -108.63975205 -35.34201547 -97.6875 -38.875 C-61.39247372 -48.07655596 -25.37282363 -23.42531962 0 0 Z " fill="#134DF6" transform="translate(684.875,419)"/>
<path d="M0 0 C1.22396484 0.53367187 1.22396484 0.53367187 2.47265625 1.078125 C10.07969266 4.7976185 16.29921788 10.11997819 22.7578125 15.50390625 C26.91407883 18.96042243 31.18684956 22.2426574 35.5 25.5 C41.7692876 30.2487461 47.90081367 35.13656506 53.98046875 40.125 C58.74533052 44.01926816 63.59546292 47.78361216 68.5 51.5 C74.85954296 56.31909125 81.08461518 61.27595762 87.25732422 66.33154297 C92.36156374 70.50428726 97.55257054 74.54320736 102.79296875 78.54296875 C107.98430911 82.5079328 113.10329566 86.56587334 118.23388672 90.60888672 C121.15371048 92.90874237 124.07701893 95.20415945 127 97.5 C128.16668361 98.4166451 129.33335027 99.33331177 130.5 100.25 C131.0775 100.70375 131.655 101.1575 132.25 101.625 C143.33333333 110.33333333 154.41666667 119.04166667 165.5 127.75 C166.07782227 128.20391113 166.65564453 128.65782227 167.25097656 129.12548828 C168.41474979 130.04006719 169.57816283 130.95510462 170.74121094 131.87060547 C173.69932563 134.19815285 176.66373927 136.51680787 179.640625 138.8203125 C209.27035975 161.8001014 209.27035975 161.8001014 213 182 C214.75602545 198.83958472 210.88797727 212.52351389 200.484375 225.95703125 C191.15444061 236.39430633 177.88472541 240.87454833 164.35546875 242.2734375 C147.18519552 242.99464445 134.48805529 234.80710391 121.81445312 224.47167969 C118.9046654 222.11158814 115.95108713 219.80807123 113 217.5 C111.83310729 216.5836211 110.66644089 215.66695395 109.5 214.75 C108.9225 214.29625 108.345 213.8425 107.75 213.375 C64 179 20.25 144.625 -23.5 110.25 C-24.07782227 109.79608887 -24.65564453 109.34217773 -25.25097656 108.87451172 C-26.41474979 107.95993281 -27.57816283 107.04489538 -28.74121094 106.12939453 C-31.69932563 103.80184715 -34.66373927 101.48319213 -37.640625 99.1796875 C-53.50724328 86.87670613 -68.27827911 75.24608654 -71 54 C-72.02024434 38.89253569 -68.70905072 25.3066936 -58.6875 13.75 C-44.16965027 -1.50806904 -20.12835193 -9.32864795 0 0 Z " fill="#134DF6" transform="translate(302,261)"/>
</svg>
